<svg width="257" height="257" viewBox="0 0 257 257" fill="none" xmlns="http://www.w3.org/2000/svg">
<rect width="257" height="257" rx="30" fill="url(#paint0_linear_35_14)"/>
<path fill-rule="evenodd" clip-rule="evenodd" d="M93.1822 45.0422C63.6281 48.9186 39.6158 51.9446 39.0001 52.2412V126.922C39.0001 175.228 39 194.575 39 200.032L39 201.76L148.596 216V207.99L148.596 200.494L179.545 200.099L210.495 199.703L213.04 197.33C214.353 196.064 215.913 193.691 216.323 192.109C216.898 190.131 217.062 166.319 216.98 125.181L216.978 124.576C216.734 62.5169 216.729 61.172 215.092 58.491C211.808 53.0324 211.234 52.9532 177.985 52.9532H148.185V45.4167C148.185 41.3029 148.185 38.5933 148.185 38C147.775 38 122.736 41.2449 93.1822 45.0422ZM210.166 127.08C210.166 64.8198 210.084 62.5256 208.607 60.9434C207.047 59.2821 206.472 59.2821 177.575 59.2821H148.185V77.4775V95.6729H151.059C153.686 95.6729 153.932 95.5147 153.932 93.2996C153.932 91.1636 154.178 90.9263 156.395 90.9263C158.611 90.9263 158.858 91.1636 158.858 93.2996V95.6729H169.53H180.202V98.0462V100.42H164.194H148.185V109.913C148.185 118.378 148.432 119.881 150.156 123.203C151.223 125.26 152.865 127.792 153.768 128.899L155.41 130.877L157.134 128.899C159.843 125.814 166.903 111.574 168.216 106.748C169.201 102.872 169.53 102.397 171.254 102.635C172.321 102.793 173.388 103.109 173.634 103.268C173.799 103.505 173.388 106.036 172.567 108.963C170.843 115.292 165.918 125.418 161.895 130.798C158.529 135.307 158.693 136.098 163.701 139.896C166.739 142.269 166.903 142.585 166.082 144.721C165.671 146.066 165.015 147.095 164.686 147.095C164.358 147.095 162.305 145.275 160.089 143.139C157.872 141.003 155.738 139.184 155.327 139.184C154.999 139.184 153.193 140.449 151.469 142.111L148.185 144.959V169.404V193.77H177.575C201.711 193.77 207.293 193.533 208.607 192.662C210.166 191.555 210.166 189.973 210.166 127.082V127.08ZM136.692 120.197V116.242V112.286L133.655 112.444C131.931 112.523 125.527 112.761 119.452 112.84C104.429 113.156 104.675 113.077 104.675 117.587V121.226L108.616 120.197C108.616 120.197 112.002 119.584 116.928 120.197C116.271 127.91 116.004 135.604 116.004 135.604C116.004 152.692 115.019 151.841 121.587 151.841H125.199V136.019V120.197H130.946H136.692ZM99.6882 121.957C99.3248 118.105 96.3018 115.231 94.1673 114.659C91.2119 113.868 85.3012 113.789 79.062 114.422L75.9424 114.739V132.143V149.468H79.6367H83.3309V142.744V136.019H85.7116C88.8312 136.019 90.4731 137.601 91.5403 141.794C92.9585 147.017 93.4392 148.957 94.6984 149.751C95.4801 150.245 96.5618 150.296 98.3541 150.417C98.8515 150.45 99.3309 150.483 99.779 150.514C101.476 150.631 102.722 150.717 102.787 150.655C102.851 150.655 102.367 148.877 101.684 146.37C101.49 145.66 101.281 144.892 101.063 144.089C99.1751 137.681 94.4342 134.299 94.1673 133.824C95.7066 132.934 97.357 131.833 98.149 130.561C99.9961 127.594 99.9961 125.221 99.6882 121.957ZM68.4719 119.643C69.0465 117.745 69.0465 116.4 68.554 115.925C67.2405 114.659 58.5385 114.501 55.7473 115.767C49.3439 118.536 47.6199 125.814 52.1351 130.798C53.5308 132.301 55.9115 133.962 57.3892 134.437C60.9192 135.545 62.9716 137.76 62.6432 140.054C62.2327 142.902 57.4713 143.377 51.971 141.161C50.9037 140.766 50.4112 141.241 49.8365 143.297C48.6051 147.411 50.0827 148.281 58.2922 148.281C64.4493 148.281 65.3523 148.044 67.2405 146.383C70.3601 143.535 71.3452 139.184 69.7854 135.545C68.3077 132.064 66.9942 130.956 61.4939 128.504C57.9638 126.922 56.2399 125.339 56.2399 123.757C56.2399 123.599 56.8145 122.887 57.5534 122.254C58.949 120.83 63.7925 120.593 66.0911 121.779C67.4868 122.491 67.733 122.175 68.4719 119.643ZM149.827 137.206C150.73 136.415 151.469 135.386 151.469 134.912C151.469 134.437 150.73 133.171 149.827 132.064L148.185 130.086V134.358C148.185 138.551 148.185 138.63 149.827 137.206Z" fill="white"/>
<path d="M169.889 139.412C166.11 151.176 162.918 161.059 163.002 161.373C163.002 161.765 165.354 162 168.293 162H173.585L175.097 156.51L176.609 151.02H183.581H190.469L192.148 156.275L193.828 161.608L199.456 161.843C202.48 162 205 161.765 205 161.451C205 161.059 201.808 151.255 198.028 139.647L190.973 118.471L183.917 118.235L176.861 118L169.889 139.412ZM188.453 143.333C188.033 144.039 179.465 144.196 178.793 143.569C178.541 143.333 179.213 140.196 180.221 136.667C181.313 133.137 182.405 129.137 182.741 127.882C183.245 125.843 183.665 126.627 186.101 134.157C187.529 138.863 188.621 143.02 188.453 143.333Z" fill="white"/>
<path d="M84 125V130H87.042C92.1373 130 94.5709 125.917 91.9091 121.833C90.9965 120.417 90.0079 120 87.3462 120H84V125Z" fill="white"/>
<defs>
<linearGradient id="paint0_linear_35_14" x1="0" y1="0" x2="257" y2="257" gradientUnits="userSpaceOnUse">
<stop stop-color="#41AE98"/>
<stop offset="1" stop-color="#272727"/>
</linearGradient>
</defs>
</svg>
